<svg id="logo-svg" class="logo-svg" width="107" height="46" fill="none" xmlns="http://www.w3.org/2000/svg" data-fc-idx="0"><path d="M0 33.215v-14.43h3.376v2.787c.247-.97.732-1.704 1.455-2.2a4.013 4.013 0 012.385-.773c.557 0 1 .04 1.331.123v3.097a11.757 11.757 0 00-1.331-.062c-1.198 0-2.137.444-2.819 1.332-.68.867-1.021 2.116-1.021 3.747v6.38H0zM22.965 31.45c-1.363 1.425-3.21 2.137-5.544 2.137-2.332 0-4.19-.712-5.574-2.137-1.362-1.445-2.044-3.262-2.044-5.45 0-2.189.682-3.995 2.044-5.42 1.383-1.445 3.242-2.167 5.574-2.167 2.333 0 4.181.722 5.544 2.168 1.383 1.424 2.075 3.23 2.075 5.419 0 2.188-.692 4.005-2.075 5.45zm-8.671-2.136c.763.846 1.806 1.27 3.127 1.27 1.322 0 2.354-.424 3.097-1.27.764-.847 1.146-1.951 1.146-3.314s-.382-2.467-1.146-3.314c-.743-.846-1.775-1.27-3.097-1.27-1.32 0-2.364.424-3.127 1.27-.744.847-1.115 1.951-1.115 3.314s.371 2.467 1.115 3.314zM34.66 30.366c.68 0 1.248-.04 1.703-.123v2.972c-.702.124-1.538.186-2.509.186a7.503 7.503 0 01-1.455-.124c-.413-.082-.898-.268-1.456-.557-.557-.31-.99-.836-1.3-1.58-.31-.743-.465-1.682-.465-2.817v-6.72h-2.446v-2.819h2.446v-4.366h3.376v4.366h3.313v2.818h-3.313v5.946c0 1.156.165 1.92.495 2.292.33.35.867.526 1.61.526zM45.323 33.587c-2.25 0-3.995-.712-5.234-2.137-1.239-1.424-1.858-3.241-1.858-5.45 0-2.189.65-3.995 1.951-5.42 1.3-1.445 3.045-2.167 5.234-2.167.97 0 1.858.206 2.663.62.805.412 1.424.98 1.858 1.702v-1.95h3.375v14.43h-3.375v-1.95c-.413.701-1.063 1.27-1.951 1.703a6.132 6.132 0 01-2.663.619zm.495-3.004c1.383 0 2.436-.433 3.159-1.3.743-.868 1.115-1.962 1.115-3.283s-.372-2.416-1.115-3.283c-.723-.867-1.776-1.3-3.159-1.3-1.3 0-2.333.433-3.097 1.3-.743.847-1.114 1.94-1.114 3.283 0 1.342.371 2.446 1.114 3.314.764.846 1.797 1.27 3.097 1.27zM64.176 30.366c.681 0 1.249-.04 1.703-.123v2.972c-.702.124-1.538.186-2.508.186a7.503 7.503 0 01-1.456-.124c-.413-.082-.898-.268-1.455-.557-.558-.31-.991-.836-1.3-1.58-.31-.743-.465-1.682-.465-2.817v-6.72h-2.447v-2.819h2.447v-4.366h3.375v4.366h3.314v2.818H62.07v5.946c0 1.156.165 1.92.495 2.292.33.35.868.526 1.61.526z" fill="white" style="fill: rgb(255, 255, 255) !important;"/><path fill-rule="evenodd" clip-rule="evenodd" d="M84.456 38.529c8.804 0 15.941-7.137 15.941-15.941 0-8.804-7.137-15.941-15.94-15.941-8.805 0-15.942 7.137-15.942 15.941 0 8.804 7.137 15.941 15.941 15.941zm-5.11-20.45a6.801 6.801 0 119.619 9.619 2.126 2.126 0 003.006 3.006c4.316-4.316 4.316-11.314 0-15.63-4.317-4.317-11.315-4.317-15.63 0a2.126 2.126 0 003.005 3.005z" fill="white" style="fill: rgb(255, 255, 255) !important;"/><circle cx="90.468" cy="29.192" r="1.488" transform="rotate(45 90.468 29.192)" fill="white" style="fill: rgb(255, 255, 255) !important;"/></svg>